<?xml version="1.0" encoding="UTF-8" standalone="no"?>
<!-- Created with Inkscape (http://www.inkscape.org/) -->

<svg
   xmlns:dc="http://purl.org/dc/elements/1.1/"
   xmlns:cc="http://creativecommons.org/ns#"
   xmlns:rdf="http://www.w3.org/1999/02/22-rdf-syntax-ns#"
   xmlns:svg="http://www.w3.org/2000/svg"
   xmlns="http://www.w3.org/2000/svg"
   xmlns:sodipodi="http://sodipodi.sourceforge.net/DTD/sodipodi-0.dtd"
   xmlns:inkscape="http://www.inkscape.org/namespaces/inkscape"
   width="210mm"
   height="297mm"
   viewBox="0 0 210 297"
   version="1.1"
   id="svg8"
   inkscape:version="0.92.1 r15371"
   sodipodi:docname="drawing.svg">
  <defs
     id="defs2" />
  <sodipodi:namedview
     id="base"
     pagecolor="#ffffff"
     bordercolor="#666666"
     borderopacity="1.0"
     inkscape:pageopacity="0.0"
     inkscape:pageshadow="2"
     inkscape:zoom="1.28"
     inkscape:cx="375.28781"
     inkscape:cy="458.69613"
     inkscape:document-units="mm"
     inkscape:current-layer="g20"
     showgrid="false"
     inkscape:window-width="1280"
     inkscape:window-height="657"
     inkscape:window-x="-8"
     inkscape:window-y="-8"
     inkscape:window-maximized="1" />
  <metadata
     id="metadata5">
    <rdf:RDF>
      <cc:Work
         rdf:about="">
        <dc:format>image/svg+xml</dc:format>
        <dc:type
           rdf:resource="http://purl.org/dc/dcmitype/StillImage" />
        <dc:title></dc:title>
      </cc:Work>
    </rdf:RDF>
  </metadata>
  <g
     inkscape:label="Layer 1"
     inkscape:groupmode="layer"
     id="layer1">
    <g
       transform="matrix(0.35277777,0,0,-0.35277777,43.820841,189.82524)"
       inkscape:label="ink_ext_XXXXXX"
       id="g18">
      <g
         transform="scale(0.1)"
         id="g20">
        <path
           inkscape:connector-curvature="0"
           id="path64"
           style="fill:#ffffff;fill-opacity:1;fill-rule:nonzero;stroke:none"
           d="m 637.961,1114.06 c 0,0 7.129,1.8 19.605,5.07 12.422,3.31 30.196,8.07 51.516,13.75 21.266,5.88 46.133,12.52 72.664,20.05 26.531,7.5 54.82,15.49 83.133,23.52 28.246,8.26 56.461,16.53 82.922,24.26 26.476,7.73 51.078,15.37 72.199,21.67 21.12,6.36 38.66,12 50.96,15.78 12.26,3.91 19.26,6.09 19.26,6.09 0,0 -7.11,-1.82 -19.57,-5.04 -12.43,-3.36 -30.25,-7.88 -51.52,-13.76 -21.271,-5.88 -46.157,-12.5 -72.669,-20.03 -26.559,-7.53 -54.84,-15.54 -83.16,-23.56 -28.207,-8.26 -56.438,-16.53 -82.895,-24.26 -26.472,-7.73 -51.062,-15.34 -72.215,-21.69 -21.078,-6.51 -38.644,-11.94 -50.929,-15.75 -12.278,-3.88 -19.301,-6.1 -19.301,-6.1" />
        <path
           inkscape:connector-curvature="0"
           id="path68"
           style="fill:#ffffff;fill-opacity:1;fill-rule:nonzero;stroke:none"
           d="m 2526.17,1955.97 c 0,0 -11.31,-7.72 -31.1,-21.41 -19.64,-13.81 -47.78,-33.51 -81.5,-57.24 -33.45,-24.03 -72.81,-51.61 -114.4,-82 -41.64,-30.25 -86.01,-62.57 -130.41,-94.94 -44.07,-32.77 -88.14,-65.58 -129.42,-96.23 -41.36,-30.77 -79.42,-60.19 -112.27,-84.96 -32.84,-24.84 -59.78,-46.21 -78.83,-60.89 -18.89,-14.8 -29.71,-23.27 -29.71,-23.27 0,0 11.25,7.78 31.09,21.4 19.66,13.89 48.01,33.19 81.49,57.19 33.49,24.05 72.9,51.67 114.43,82 41.63,30.35 86.02,62.67 130.44,95.06 44.04,32.73 88.08,65.47 129.37,96.21 41.36,30.74 79.41,60.12 112.28,84.99 32.61,25.14 59.81,46.14 78.82,60.78 18.92,14.87 29.72,23.31 29.72,23.31" />
        <path
           inkscape:connector-curvature="0"
           id="path72"
           style="fill:#ffffff;fill-opacity:1;fill-rule:nonzero;stroke:none"
           d="m 2058.37,2109.67 c 0,0 -4.51,-8.9 -12.33,-24.63 -7.69,-15.69 -18.67,-38.17 -31.9,-65.11 -12.93,-27.06 -28.33,-58.48 -44.27,-92.44 -15.92,-33.95 -32.93,-70.12 -49.91,-106.34 -16.68,-36.39 -33.29,-72.75 -48.94,-106.83 -15.59,-34.09 -29.58,-66.19 -41.89,-93.53 -12.26,-27.37 -22.01,-50.45 -29.05,-66.46 -6.85,-16.11 -10.85,-25.26 -10.85,-25.26 0,0 4.5,8.91 12.35,24.56 7.64,15.74 18.96,38.05 31.89,65.11 12.94,27.09 28.37,58.53 44.29,92.47 15.93,33.97 32.91,70.15 49.91,106.39 16.65,36.34 33.28,72.71 48.9,106.78 15.61,34.1 29.63,66.18 41.92,93.56 11.99,27.49 22.02,50.4 29.06,66.43 6.88,16.09 10.82,25.3 10.82,25.3" />
        <path
           inkscape:connector-curvature="0"
           id="path154"
           style="fill:#ffffff;fill-opacity:1;fill-rule:nonzero;stroke:none"
           d="m 1057.92,738.922 c -3.56,-0.781 -7.08,1.519 -7.83,5.078 -0.77,3.551 1.47,7.07 5.04,7.82 3.58,0.782 7.11,-1.492 7.86,-5.07 0.78,-3.539 -1.51,-7.078 -5.07,-7.828" />
        <path
           inkscape:connector-curvature="0"
           id="path270"
           style="fill:#7fbfa2;fill-opacity:1;fill-rule:nonzero;stroke:none"
           d="m 1208.31,1366.12 c -28.25,-7.35 -90.7,-18.81 -120.99,-77.95 -62.21,-121.12 142.81,-32.19 120.99,77.95 v 0" />
        <path
           inkscape:connector-curvature="0"
           id="path302"
           style="fill:#7fbfa2;fill-opacity:1;fill-rule:nonzero;stroke:none"
           d="m 1870.59,695.449 c 23.96,6.223 76.91,15.949 102.58,66.11 52.79,102.73 -121.05,27.269 -102.58,-66.11 v 0" />
        <path
           inkscape:connector-curvature="0"
           id="path304"
           style="fill:#c3e9d7;fill-opacity:1;fill-rule:nonzero;stroke:none"
           d="m 1867.93,696.34 c -12.46,-21.289 -43.08,-65.641 -25.81,-119.238 35.38,-109.942 104.94,66.308 25.81,119.238 v 0" />
        <path
           inkscape:connector-curvature="0"
           id="path308"
           style="fill:#ac3b61;fill-opacity:1;fill-rule:evenodd;stroke:none"
           d="m 1779.44,1470.96 c -110.5,51.21 -117.98,292.1 -49.08,345.45 93.82,72.61 164.81,-34.34 176.05,-39.1 11.19,-4.72 137.37,18.6 150.43,-99.32 9.57,-86.61 -163.78,-250.82 -277.4,-207.03" />
        <path
           inkscape:connector-curvature="0"
           id="path310"
           style="fill:#ac3b61;fill-opacity:1;fill-rule:evenodd;stroke:none"
           d="m 1802.77,1426.35 c 14.68,120.93 241.52,202.32 313.53,153.2 98,-66.83 18.16,-167.33 17.15,-179.44 -1.09,-12.11 60.05,-124.98 -48.11,-173.76 -79.42,-35.87 -289.16,78.38 -282.57,200" />
        <path
           inkscape:connector-curvature="0"
           id="path312"
           style="fill:#ac3b61;fill-opacity:1;fill-rule:evenodd;stroke:none"
           d="m 1767.55,1390.35 c 119.56,23.4 267.01,-167.28 242.51,-250.89 -33.37,-113.87 -153.61,-68.96 -165.46,-71.67 -11.86,-2.72 -100.35,-95.72 -180.02,-7.86 -58.57,64.48 -14.66,299.19 102.97,330.42" />
        <path
           inkscape:connector-curvature="0"
           id="path314"
           style="fill:#ac3b61;fill-opacity:1;fill-rule:evenodd;stroke:none"
           d="m 1722.48,1412.74 c 59.13,-106.48 -76.7,-305.51 -163.8,-308.02 -118.58,-3.4 -112.96,124.74 -119.2,135.2 -6.27,10.44 -122.01,65.95 -63.08,168.91 43.26,75.65 280.05,106.24 346.08,3.91" />
        <path
           inkscape:connector-curvature="0"
           id="path316"
           style="fill:#ac3b61;fill-opacity:1;fill-rule:evenodd;stroke:none"
           d="m 1729.86,1462.53 c -82.95,-89.04 -314.27,-21.23 -343.52,60.86 -39.84,111.76 83.86,145.96 91.85,155.12 8.04,9.2 25.07,136.36 141.14,112.1 85.29,-17.82 187.51,-233.68 110.53,-328.08" />
        <path
           inkscape:connector-curvature="0"
           id="path318"
           style="fill:#edc7b7;fill-opacity:1;fill-rule:evenodd;stroke:none"
           d="m 1824.54,1529.43 c 14.55,14.81 29.46,26.58 42.51,30.9 -2.39,-15.57 -14.01,-35.28 -28.93,-54.52 56.83,41.22 131.61,83.35 178.81,83.08 -22.54,-43.79 -99.9,-92.7 -164.6,-123.91 27.23,4.98 54.06,6.54 70.65,0.37 -14.44,-13.32 -23.16,-24.49 -53.42,-30.15 62.56,-5.32 148.29,-20.53 194.62,-45.01 -55.35,-13.48 -135.19,-4.2 -192.77,4.36 12.1,-7.98 39.2,-22.48 44.84,-31.02 -10.2,-1.12 -28.95,-0.39 -42.87,3.88 51.46,-39.07 103.18,-88.56 116.38,-128.23 -48.74,7.28 -119.92,64.85 -170.23,116.07 13.47,-24.15 23.53,-49.09 23.04,-66.75 -15.79,8.6 -32.56,30.44 -46.85,54.72 18.9,-69.52 32.82,-160.94 14.38,-206.93 -28.4,32.38 -45.1,105.23 -52.39,170.9 -3.7,-16.5 -8.9,-30.79 -15.95,-39.97 -5.39,11.29 -7.38,28.01 -7.18,46.56 -21.69,-63.49 -54.69,-133.08 -90.22,-158.85 -7.61,47.82 24.59,131.14 57.62,194.29 -18.12,-19.21 -37.64,-35.36 -53.95,-40.16 3.01,16.16 16.26,36.56 32.7,56.06 -58.77,-39.47 -136.78,-79.86 -184.68,-77.66 21.47,37.84 85.91,78.05 146.1,106.65 -17.67,-2.11 -33.75,-1.95 -45.13,1.94 8.28,8.11 21.96,14.96 37.97,20.56 -66.14,-0.4 -140.53,7.68 -176.04,32.13 43.21,23.5 134.74,20.53 205.75,10.02 -25.26,11.18 -48.33,24.97 -58.61,39.38 18.3,2.72 45.75,-5.05 72.42,-16.27 -57.05,44.45 -124.16,110.26 -136.97,158.66 45.83,-9.78 109.18,-66.25 155.75,-118.44 -10.14,21.46 -17.07,42.65 -16.12,58.05 10.63,-6.25 21.52,-18.76 31.66,-33.96 -17.67,64.53 -29.34,140.3 -14.5,181.52 31.36,-33.33 51.14,-112.69 60.1,-181.05 3.67,21.52 9.49,40.76 18.23,52.12 5.87,-12.13 7.71,-30.64 7.26,-50.97 22.15,64.4 56.45,136.2 93.03,162.3 6.74,-44.68 -21.35,-119.8 -52.41,-180.67" />
        <path
           inkscape:connector-curvature="0"
           id="path320"
           style="fill:#fef2e3;fill-opacity:1;fill-rule:evenodd;stroke:none"
           d="m 1804.89,1537.41 c 57.92,-24.53 84.94,-91.38 60.37,-149.3 -24.57,-57.9 -91.4,-84.95 -149.26,-60.38 -57.84,24.57 -84.88,91.4 -60.39,149.28 24.53,57.93 91.38,84.99 149.28,60.4" />
        <path
           inkscape:connector-curvature="0"
           id="path322"
           style="fill:#123c69;fill-opacity:1;fill-rule:evenodd;stroke:none"
           d="m 1260.07,1190.59 c -83.39,52.3 -64.84,246.17 -4.15,281.91 82.59,48.65 128.6,-44.31 137.11,-49.27 8.49,-4.93 112.02,0.93 110.48,-94.92 -1.12,-70.44 -156.84,-184.36 -243.44,-137.72" />
        <path
           inkscape:connector-curvature="0"
           id="path324"
           style="fill:#123c69;fill-opacity:1;fill-rule:evenodd;stroke:none"
           d="m 1274.23,1152.45 c 24.07,95.43 214.19,137.57 266.91,90.87 71.76,-63.55 -2.44,-135.91 -4.51,-145.56 -2.12,-9.6 35.4,-106.28 -56.26,-134.408 -67.34,-20.653 -223.85,92.308 -206.14,189.098" />
        <path
           inkscape:connector-curvature="0"
           id="path326"
           style="fill:#123c69;fill-opacity:1;fill-rule:evenodd;stroke:none"
           d="m 1242.34,1127.18 c 98.2,6.58 196.98,-161.282 168.79,-225.852 -38.31,-87.859 -130.12,-39.598 -139.92,-40.566 -9.76,-0.981 -90.19,-66.551 -145.16,12.027 -40.42,57.641 18.74,241.351 116.29,254.391" />
        <path
           inkscape:connector-curvature="0"
           id="path328"
           style="fill:#123c69;fill-opacity:1;fill-rule:evenodd;stroke:none"
           d="m 1208.48,1149.69 c 36.51,-91.33 -92.69,-237.081 -162.77,-230.26 -95.401,9.379 -77.827,111.59 -81.792,120.6 -3.953,9.01 -91.086,65.25 -33.352,141.78 42.383,56.24 235.384,56.67 277.914,-32.12" />
        <path
           inkscape:connector-curvature="0"
           id="path330"
           style="fill:#123c69;fill-opacity:1;fill-rule:evenodd;stroke:none"
           d="m 1219.47,1188.87 c -75.65,-62.93 -254.169,14.98 -269.267,83.77 -20.558,93.64 82.097,108.45 89.447,115 7.37,6.55 33.97,106.75 124.59,75.49 66.58,-22.98 126.55,-206.43 55.23,-274.26" />
        <path
           inkscape:connector-curvature="0"
           id="path332"
           style="fill:#bab2b5;fill-opacity:1;fill-rule:evenodd;stroke:none"
           d="m 1302.18,1232.84 c 13.13,10.4 26.31,18.34 37.2,20.45 -3.5,-12.22 -14.84,-26.83 -28.75,-40.76 49.77,27.26 114,53.41 151.81,48.39 -22.52,-32.79 -89.51,-64.13 -144.55,-82.56 22.32,1.2 43.99,-0.28 56.65,-6.89 -12.92,-9.21 -21.03,-17.26 -45.89,-18.72 49.61,-10.63 116.79,-31.53 151.45,-55.89 -45.76,-5.16 -108.82,10.41 -154.11,23.15 8.89,-7.67 29.15,-22.06 32.76,-29.44 -8.26,0.14 -23.23,2.64 -33.95,7.46 37.28,-36.52 73.71,-81.49 80.23,-114.671 -38.3,10.84 -89.51,64.241 -124.64,110.411 8.33,-20.74 13.88,-41.74 11.69,-55.82 -11.8,8.47 -23.01,27.68 -31.99,48.59 8.06,-57.66 9.92,-132.368 -9.55,-167.36 -19.46,28.859 -25.42,88.96 -24.61,142.37 -4.64,-12.83 -10.27,-23.79 -16.86,-30.39 -3.15,9.58 -3.04,23.18 -0.98,38.01 -23.86,-48.69 -57.47,-101.1 -88.58,-118.182 -1.23,39.153 33.08,102.662 66.02,149.892 -16.48,-13.5 -33.82,-24.47 -47.38,-26.67 4.05,12.65 16.78,27.61 31.97,41.63 -51.17,-25.69 -117.83,-50.12 -156,-43.46 21.06,28.13 76.83,53.81 127.98,70.59 -14.37,0.11 -27.24,1.88 -35.97,6.15 7.45,5.64 19.11,9.74 32.52,12.61 -53.06,6.41 -111.87,20.46 -137.85,43.67 37.05,14.44 110.11,2.75 166.01,-12.91 -19.15,11.53 -36.23,24.94 -43,37.53 14.92,0.31 36.19,-8.71 56.44,-20.45 -41.26,41.47 -88.36,101.07 -93.7,141.16 35.72,-12.49 80.83,-64.22 112.88,-110.8 -5.96,18.25 -9.38,35.94 -7.03,48.17 7.88,-6.08 15.35,-17.22 21.94,-30.46 -7.6,53.55 -9.26,115.49 6.86,147.01 21.71,-29.91 29.52,-95.55 29.74,-151.26 5.11,16.88 11.76,31.71 19.89,39.94 3.46,-10.33 3.09,-25.37 0.63,-41.6 24.32,49.36 59.13,103.43 91.12,120.61 0.85,-36.48 -29.31,-93.84 -60.4,-139.5" />
        <path
           inkscape:connector-curvature="0"
           id="path334"
           style="fill:#eee2dc;fill-opacity:1;fill-rule:evenodd;stroke:none"
           d="m 1287.22,1241.25 c 43.92,-25.54 58.79,-81.91 33.19,-125.8 -25.58,-43.91 -81.92,-58.81 -125.79,-33.2 -43.93,25.58 -58.82,81.87 -33.23,125.79 25.58,43.93 81.93,58.81 125.83,33.21" />
        <path
           inkscape:connector-curvature="0"
           id="path336"
           style="fill:#edc7b7;fill-opacity:1;fill-rule:evenodd;stroke:none"
           d="m 1745.89,792.07 c -45.32,112.93 113.98,293.26 200.69,284.84 117.92,-11.42 96.33,-137.84 101.22,-148.941 4.91,-11.09 112.67,-80.52 41.41,-175.231 -52.3,-69.59 -290.7,-70.316 -343.32,39.332" />
        <path
           inkscape:connector-curvature="0"
           id="path338"
           style="fill:#edc7b7;fill-opacity:1;fill-rule:evenodd;stroke:none"
           d="m 1732.33,743.629 c 93.3,77.91 314,-18.16 332.75,-103.207 25.52,-115.703 -101.3,-134.121 -110.35,-142.25 -9.11,-8.063 -41.86,-132 -153.8,-93.473 -82.33,28.34 -156.66,255.031 -68.6,338.93" />
        <path
           inkscape:connector-curvature="0"
           id="path340"
           style="fill:#edc7b7;fill-opacity:1;fill-rule:evenodd;stroke:none"
           d="m 1682.09,741.531 c 102.91,-64.781 79.63,-304.453 4.57,-348.492 -102.19,-59.988 -158.89,55.031 -169.38,61.121 -10.5,6.16 -138.52,-0.898 -136.39,117.531 1.5,87.09 194.22,227.739 301.2,169.84" />
        <path
           inkscape:connector-curvature="0"
           id="path342"
           style="fill:#edc7b7;fill-opacity:1;fill-rule:evenodd;stroke:none"
           d="m 1664.63,788.699 c -29.91,-117.871 -265.02,-169.648 -330.12,-111.89 -88.56,78.722 3.29,168.132 5.89,180.019 2.62,11.852 -43.58,131.481 69.77,166.012 83.24,25.38 276.47,-114.461 254.46,-234.141" />
        <path
           inkscape:connector-curvature="0"
           id="path344"
           style="fill:#edc7b7;fill-opacity:1;fill-rule:evenodd;stroke:none"
           d="m 1704.07,819.859 c -121.36,-7.898 -243.18,199.761 -208.27,279.511 47.54,108.52 160.92,48.72 173.01,49.94 12.12,1.17 111.44,81.98 179.3,-15.12 49.84,-71.39 -23.57,-298.389 -144.04,-314.331" />
        <path
           inkscape:connector-curvature="0"
           id="path346"
           style="fill:#ac3b61;fill-opacity:1;fill-rule:evenodd;stroke:none"
           d="m 1818.55,803.66 c 20.73,0.879 39.64,-0.781 52.09,-6.582 -12.39,-9.719 -34.35,-16.047 -58.33,-19.816 69.55,-8.953 152.78,-29.524 186.92,-62 -46.41,-16.41 -136.14,0.957 -204.5,22.539 23.2,-15.02 43.75,-32.281 51.56,-48.102 -19.56,0.223 -33.53,-1.961 -59.42,14.66 41.83,-46.687 93.74,-116.468 110.72,-166.031 -49.5,28.113 -101.14,89.563 -137.12,135.231 3.32,-14.129 13.11,-43.231 11.37,-53.25 -8.16,6.121 -21.32,19.511 -28.52,32.101 10.68,-63.59 14.4,-135.031 -3.17,-172.93 -30.41,38.661 -42.81,129.27 -44.33,201 -6.74,-26.789 -16.48,-51.808 -28.89,-64.339 -5.6,17.078 -2.87,44.41 3.36,71.879 -33.82,-63.52 -86.31,-139.559 -131.24,-160.391 1.54,42.98 39.29,107.461 78.94,160.223 -14.01,-9.454 -27.58,-16.293 -38.97,-18.133 3.81,11.883 13.83,25.402 26.63,38.73 -59.21,-31.359 -130.92,-59.308 -174.43,-53.769 27.21,40.039 107.7,78.59 174.99,101.879 -26.32,-1.539 -51.65,0.101 -66.79,7.73 13.25,9.699 36.86,15.512 62.21,18.383 -69.78,11.539 -154.18,35.566 -187.55,69.937 41.56,12.84 115.94,-2.007 179.29,-22.398 -14.28,10.559 -25.89,21.687 -31.5,32.309 11.58,0.21 26.22,-4.168 41.69,-11.079 -48.39,45.028 -96.97,101.809 -106.05,143.93 47.53,-12.492 112.08,-77.293 156.57,-133.582 -10.74,25.441 -18.1,51.242 -15.71,68.75 15.16,-10.539 29.84,-35.027 41.58,-61.461 -11.13,71.461 -14.89,165.252 8.91,209.252 26.61,-38.51 34.09,-122.978 32.27,-192.861 7.33,22.609 16.74,42.742 27.97,53.301 3.43,-11.848 2.79,-28.391 -0.18,-46.391 31.24,59.012 74.57,122.141 113.57,141.911 0,-45.688 -39.93,-116.989 -80.17,-172.81 17.4,13.141 34.78,23.141 48.91,25.45 -4.07,-12.801 -15.37,-27.61 -29.61,-41.989 60.16,31.598 134.3,60.329 178.74,54.278 -25.69,-37.09 -97.52,-72.481 -161.81,-95.559" />
        <path
           inkscape:connector-curvature="0"
           id="path348"
           style="fill:#fef2e3;fill-opacity:1;fill-rule:evenodd;stroke:none"
           d="m 1809.78,822.969 c 25.3,-57.457 -0.77,-124.61 -58.19,-149.93 -57.52,-25.301 -124.64,0.813 -149.88,58.242 -25.3,57.547 0.76,124.668 58.25,149.989 57.47,25.32 124.54,-0.809 149.82,-58.301" />
        <path
           inkscape:connector-curvature="0"
           id="path336-9"
           style="fill:#ac3b61;fill-opacity:1;fill-rule:evenodd;stroke:none;stroke-width:0.99999994"
           d="m 1693.4708,-405.67289 c -45.32,112.93 113.98,293.26 200.69,284.84 117.92,-11.42 96.33,-137.84 101.22,-148.941 4.91,-11.09 112.67,-80.52 41.41,-175.231 -52.3,-69.59 -290.7,-70.316 -343.32,39.332" />
        <path
           inkscape:connector-curvature="0"
           id="path338-1"
           style="fill:#ac3b61;fill-opacity:1;fill-rule:evenodd;stroke:none;stroke-width:0.99999994"
           d="m 1679.9108,-454.11389 c 93.3,77.91 314,-18.16 332.75,-103.207 25.52,-115.703 -101.3,-134.121 -110.35,-142.25 -9.11,-8.063 -41.86,-132 -153.8,-93.473 -82.33,28.34 -156.66,255.031 -68.6,338.93" />
        <path
           inkscape:connector-curvature="0"
           id="path340-6"
           style="fill:#ac3b61;fill-opacity:1;fill-rule:evenodd;stroke:none;stroke-width:0.99999994"
           d="m 1629.6708,-456.21189 c 102.91,-64.781 79.63,-304.453 4.57,-348.492 -102.19,-59.988 -158.89,55.031 -169.38,61.121 -10.5,6.16 -138.52,-0.898 -136.39,117.531 1.5,87.09 194.22,227.739 301.2,169.84" />
        <path
           inkscape:connector-curvature="0"
           id="path342-3"
           style="fill:#ac3b61;fill-opacity:1;fill-rule:evenodd;stroke:none;stroke-width:0.99999994"
           d="m 1612.2108,-409.04389 c -29.91,-117.871 -265.02,-169.648 -330.12,-111.89 -88.56,78.722 3.29,168.132 5.89,180.019 2.62,11.852 -43.58,131.481 69.77,166.012 83.24,25.38 276.47,-114.461 254.46,-234.141" />
        <path
           inkscape:connector-curvature="0"
           id="path344-3"
           style="fill:#ac3b61;fill-opacity:1;fill-rule:evenodd;stroke:none;stroke-width:0.99999994"
           d="m 1651.6508,-377.88389 c -121.36,-7.898 -243.18,199.761 -208.27,279.511004 47.54,108.52 160.92,48.72 173.01,49.94 12.12,1.17 111.44,81.98 179.3,-15.12 49.84,-71.390004 -23.57,-298.389004 -144.04,-314.331004" />
        <path
           inkscape:connector-curvature="0"
           id="path346-9"
           style="fill:#edc7b7;fill-opacity:1;fill-rule:evenodd;stroke:none;stroke-width:0.99999994"
           d="m 1766.1308,-394.08289 c 20.73,0.879 39.64,-0.781 52.09,-6.582 -12.39,-9.719 -34.35,-16.047 -58.33,-19.816 69.55,-8.953 152.78,-29.524 186.92,-62 -46.41,-16.41 -136.14,0.957 -204.5,22.539 23.2,-15.02 43.75,-32.281 51.56,-48.102 -19.56,0.223 -33.53,-1.961 -59.42,14.66 41.83,-46.687 93.74,-116.468 110.72,-166.031 -49.5,28.113 -101.14,89.563 -137.12,135.231 3.32,-14.129 13.11,-43.231 11.37,-53.25 -8.16,6.121 -21.32,19.511 -28.52,32.101 10.68,-63.59 14.4,-135.031 -3.17,-172.93 -30.41,38.661 -42.81,129.27 -44.33,201 -6.74,-26.789 -16.48,-51.808 -28.89,-64.339 -5.6,17.078 -2.87,44.41 3.36,71.879 -33.82,-63.52 -86.31,-139.559 -131.24,-160.391 1.54,42.98 39.29,107.461 78.94,160.223 -14.01,-9.454 -27.58,-16.293 -38.97,-18.133 3.81,11.883 13.83,25.402 26.63,38.73 -59.21,-31.359 -130.92,-59.308 -174.43,-53.769 27.21,40.039 107.7,78.59 174.99,101.879 -26.32,-1.539 -51.65,0.101 -66.79,7.73 13.25,9.699 36.86,15.512 62.21,18.383 -69.78,11.539 -154.18,35.566 -187.55,69.937 41.56,12.84 115.94,-2.007 179.29,-22.398 -14.28,10.559 -25.89,21.687 -31.5,32.309 11.58,0.21 26.22,-4.168 41.69,-11.079 -48.39,45.028 -96.97,101.809 -106.05,143.93 47.53,-12.492 112.08,-77.293 156.57,-133.582 -10.74,25.441 -18.1,51.242 -15.71,68.75 15.16,-10.539 29.84,-35.027 41.58,-61.461 -11.13,71.461 -14.89,165.252 8.91,209.252 26.61,-38.51 34.09,-122.978 32.27,-192.861 7.33,22.609 16.74,42.742 27.97,53.301 3.43,-11.848 2.79,-28.391 -0.18,-46.391 31.24,59.012 74.57,122.141 113.57,141.911 0,-45.688 -39.93,-116.989 -80.17,-172.81 17.4,13.141 34.78,23.141 48.91,25.45 -4.07,-12.801 -15.37,-27.61 -29.61,-41.989 60.16,31.598 134.3,60.329 178.74,54.278 -25.69,-37.09 -97.52,-72.481 -161.81,-95.559" />
        <path
           inkscape:connector-curvature="0"
           id="path348-9"
           style="fill:#123c69;fill-opacity:1;fill-rule:evenodd;stroke:none;stroke-width:0.99999994"
           d="m 1757.3608,-374.77389 c 25.3,-57.457 -0.77,-124.61 -58.19,-149.93 -57.52,-25.301 -124.64,0.813 -149.88,58.242 -25.3,57.547 0.76,124.668 58.25,149.989 57.47,25.32 124.54,-0.809 149.82,-58.301" />
      </g>
    </g>
  </g>
</svg>
