<?xml version="1.0" encoding="UTF-8" standalone="no"?>
<!-- Created with Inkscape (http://www.inkscape.org/) -->

<svg
   xmlns:osb="http://www.openswatchbook.org/uri/2009/osb"
   xmlns:dc="http://purl.org/dc/elements/1.1/"
   xmlns:cc="http://creativecommons.org/ns#"
   xmlns:rdf="http://www.w3.org/1999/02/22-rdf-syntax-ns#"
   xmlns:svg="http://www.w3.org/2000/svg"
   xmlns="http://www.w3.org/2000/svg"
   xmlns:sodipodi="http://sodipodi.sourceforge.net/DTD/sodipodi-0.dtd"
   xmlns:inkscape="http://www.inkscape.org/namespaces/inkscape"
   width="355.2095mm"
   height="108.88811mm"
   viewBox="0 0 355.20952 108.88811"
   version="1.1"
   id="svg8"
   inkscape:version="0.92.1 r15371"
   sodipodi:docname="logo4.svg"
   inkscape:export-filename="C:\Users\aredding.IS\Documents\smproj\src\assets\images\logo\logo_leaf.png"
   inkscape:export-xdpi="300"
   inkscape:export-ydpi="300">
  <defs
     id="defs2">
    <linearGradient
       id="linearGradient4519"
       osb:paint="solid">
      <stop
         style="stop-color:#000000;stop-opacity:1;"
         offset="0"
         id="stop4517" />
    </linearGradient>
  </defs>
  <sodipodi:namedview
     id="base"
     pagecolor="#ffffff"
     bordercolor="#666666"
     borderopacity="1.0"
     inkscape:pageopacity="0.0"
     inkscape:pageshadow="2"
     inkscape:zoom="0.24748738"
     inkscape:cx="459.6347"
     inkscape:cy="299.6934"
     inkscape:document-units="mm"
     inkscape:current-layer="g5697"
     showgrid="false"
     showguides="true"
     inkscape:window-width="1280"
     inkscape:window-height="657"
     inkscape:window-x="-8"
     inkscape:window-y="-8"
     inkscape:window-maximized="1"
     fit-margin-left="5"
     fit-margin-top="5"
     fit-margin-bottom="5"
     fit-margin-right="5" />
  <metadata
     id="metadata5">
    <rdf:RDF>
      <cc:Work
         rdf:about="">
        <dc:format>image/svg+xml</dc:format>
        <dc:type
           rdf:resource="http://purl.org/dc/dcmitype/StillImage" />
        <dc:title></dc:title>
      </cc:Work>
    </rdf:RDF>
  </metadata>
  <g
     inkscape:label="Layer 1"
     inkscape:groupmode="layer"
     id="layer1"
     transform="translate(-61.022678,208.09663)">
    <g
       id="g5688"
       transform="translate(-6.8460898)">
      <text
         transform="scale(1.0406218,0.96096392)"
         id="text16"
         y="-110.85466"
         x="197.71455"
         style="font-style:normal;font-weight:normal;font-size:11.01324654px;line-height:1.25;font-family:sans-serif;letter-spacing:0px;word-spacing:0px;fill:#8090a0;fill-opacity:1;stroke:none;stroke-width:0.27533117"
         xml:space="preserve"><tspan
           style="font-style:normal;font-variant:normal;font-weight:normal;font-stretch:normal;font-size:25.39999962px;font-family:'Alex Brush';-inkscape-font-specification:'Alex Brush';fill:#8090a0;fill-opacity:1;stroke-width:0.27533117"
           y="-110.85466"
           x="197.71455"
           id="tspan14"
           sodipodi:role="line">Studio</tspan></text>
      <path
         inkscape:connector-curvature="0"
         id="path4523"
         d="m 111.00944,-112.635 84.38679,-0.72129"
         style="fill:#8090a0;fill-opacity:1;stroke:#8090a0;stroke-width:1.53438056;stroke-linecap:butt;stroke-linejoin:miter;stroke-miterlimit:4;stroke-dasharray:none;stroke-dashoffset:0;stroke-opacity:1" />
      <path
         inkscape:connector-curvature="0"
         id="path4523-2"
         d="m 281.85863,-113.39095 84.38679,-0.72129"
         style="fill:#8090a0;fill-opacity:1;stroke:#8090a0;stroke-width:1.53438044;stroke-linecap:butt;stroke-linejoin:miter;stroke-miterlimit:4;stroke-dasharray:none;stroke-dashoffset:0;stroke-opacity:1" />
    </g>
    <g
       id="g4570"
       transform="matrix(0.1449893,0,0,0.15089518,196.11647,-205.12817)" />
    <g
       id="g4572"
       transform="matrix(0.1449893,0,0,0.15089518,196.11647,-205.12817)" />
    <g
       id="g4574"
       transform="matrix(0.1449893,0,0,0.15089518,196.11647,-205.12817)" />
    <g
       id="g4576"
       transform="matrix(0.1449893,0,0,0.15089518,196.11647,-205.12817)" />
    <g
       id="g4578"
       transform="matrix(0.1449893,0,0,0.15089518,196.11647,-205.12817)" />
    <g
       id="g4580"
       transform="matrix(0.1449893,0,0,0.15089518,196.11647,-205.12817)" />
    <g
       id="g4582"
       transform="matrix(0.1449893,0,0,0.15089518,196.11647,-205.12817)" />
    <g
       id="g4584"
       transform="matrix(0.1449893,0,0,0.15089518,196.11647,-205.12817)" />
    <g
       id="g4586"
       transform="matrix(0.1449893,0,0,0.15089518,196.11647,-205.12817)" />
    <g
       id="g4588"
       transform="matrix(0.1449893,0,0,0.15089518,196.11647,-205.12817)" />
    <g
       id="g4590"
       transform="matrix(0.1449893,0,0,0.15089518,196.11647,-205.12817)" />
    <g
       id="g4592"
       transform="matrix(0.1449893,0,0,0.15089518,196.11647,-205.12817)" />
    <g
       id="g4594"
       transform="matrix(0.1449893,0,0,0.15089518,196.11647,-205.12817)" />
    <g
       id="g4596"
       transform="matrix(0.1449893,0,0,0.15089518,196.11647,-205.12817)" />
    <g
       id="g4598"
       transform="matrix(0.1449893,0,0,0.15089518,196.11647,-205.12817)" />
    <g
       id="g5697"
       transform="translate(1.3309388e-6)">
      <text
         id="text12"
         y="-138.68489"
         x="63.740646"
         style="font-style:normal;font-weight:normal;font-size:10.58333302px;line-height:1.25;font-family:sans-serif;letter-spacing:0px;word-spacing:0px;fill:#faa0bf;fill-opacity:1;stroke:none;stroke-width:0.26458332"
         xml:space="preserve"><tspan
           style="font-style:normal;font-variant:normal;font-weight:normal;font-stretch:normal;font-size:50.79999924px;font-family:'Abhaya Libre SemiBold';-inkscape-font-specification:'Abhaya Libre SemiBold, ';fill:#faa0bf;fill-opacity:1;stroke-width:0.26458332"
           y="-138.68489"
           x="63.740646"
           id="tspan10"
           sodipodi:role="line">silver</tspan></text>
      <text
         id="text12-2"
         y="-138.68489"
         x="282.64468"
         style="font-style:normal;font-weight:normal;font-size:10.58333302px;line-height:1.25;font-family:sans-serif;letter-spacing:0px;word-spacing:0px;fill:#faa0bf;fill-opacity:1;stroke:none;stroke-width:0.26458332"
         xml:space="preserve"><tspan
           style="font-style:normal;font-variant:normal;font-weight:normal;font-stretch:normal;font-size:50.79999924px;font-family:'Abhaya Libre SemiBold';-inkscape-font-specification:'Abhaya Libre SemiBold, ';fill:#faa0bf;fill-opacity:1;stroke-width:0.26458332"
           y="-138.68489"
           x="282.64468"
           id="tspan10-3"
           sodipodi:role="line">maple</tspan></text>
      <g
         transform="translate(0.45726387)"
         id="g5682">
        <path
           inkscape:connector-curvature="0"
           class="st4"
           d="m 230.58594,-139.05406 c 0,0 0.19426,-1.9431 -1.24313,-1.9431 -2.1755,0 -6.79848,10.5181 -12.66459,10.47585 0.46618,-1.56293 -0.73811,-4.3086 -3.41867,-2.87242 -2.64168,1.43622 -7.84736,0 -7.84736,0 0,0 2.4086,-0.0423 1.43739,-1.1405 -1.01007,-1.09829 -10.0229,-2.99914 -13.05307,-6.29397 5.39992,0.42241 13.83004,-3.59051 13.83004,-5.57585 0,-1.94313 -5.01146,-3.29484 -7.57544,-4.64656 -2.56399,-1.35172 -7.38121,-6.46293 -7.38121,-6.46293 0,0 2.95249,0 3.61291,-1.73191 0.66043,-1.73189 -4.27334,-7.01206 -4.27334,-7.01206 0,0 1.67049,0.38017 2.36976,-0.4224 0.69928,-0.76035 -2.83593,-4.09743 -2.83593,-4.09743 0,0 0.89351,0.38017 1.78704,-0.63361 0.8935,-0.97155 -3.9237,-7.60345 -3.9237,-7.60345 0,0 8.39125,4.43534 10.10059,4.43534 1.70933,0 1.98127,-1.56294 1.98127,-1.56294 0,0 4.42871,4.81554 5.67186,4.81554 1.24314,0 0.85466,-3.29484 0.85466,-3.29484 4.27332,1.94311 10.99411,13.60172 12.85883,12.54569 1.90358,-1.01379 -1.51509,-9.0819 -3.10786,-13.17931 -2.36978,-6.08276 -1.78705,-13.26379 -1.78705,-13.26379 0,0 4.81721,4.30862 6.91503,3.50604 2.09781,-0.80261 0.46618,-11.10949 0.46618,-11.10949 0,0 1.24314,1.85862 3.22442,1.85862 1.98127,0 4.73951,-12.33448 4.73951,-12.33448 0,0 2.75823,12.33448 4.7395,12.33448 1.98128,0 3.22442,-1.85862 3.22442,-1.85862 0,0 -1.59279,10.30688 0.46617,11.10949 2.09783,0.80258 6.91502,-3.50604 6.91502,-3.50604 0,0 0.58273,7.22327 -1.78702,13.26379 -1.59279,4.09741 -5.01143,12.12328 -3.10788,13.17931 1.90357,1.01378 8.62434,-10.60258 12.85883,-12.54569 0,0 -0.3885,3.29484 0.85467,3.29484 1.24315,0 5.67187,-4.81554 5.67187,-4.81554 0,0 0.27193,1.56294 1.98126,1.56294 1.70933,0 10.10059,-4.43534 10.10059,-4.43534 0,0 -4.81721,6.6319 -3.92369,7.60345 0.89351,0.97153 1.78703,0.63361 1.78703,0.63361 0,0 -3.53521,3.33708 -2.83594,4.09743 0.69926,0.76034 2.36976,0.4224 2.36976,0.4224 0,0 -4.93375,5.23793 -4.27334,7.01206 0.66043,1.73191 3.61291,1.73191 3.61291,1.73191 0,0 -4.8172,5.15344 -7.38119,6.46293 -2.56401,1.35172 -7.57544,2.66119 -7.57544,4.64656 0,1.94308 8.4301,5.95602 13.83003,5.57585 -3.03018,3.29483 -12.08186,5.19568 -13.05307,6.29397 -1.01005,1.09826 1.43739,1.1405 1.43739,1.1405 0,0 -5.20567,1.43622 -7.84736,0 -2.64171,-1.43618 -3.88486,1.35173 -3.41867,2.87242 -5.90496,0.0423 -10.48907,-10.47585 -12.66459,-10.47585 -1.39854,0 -1.24316,1.9431 -1.24316,1.9431 z"
           style="fill:#8090a0;stroke-width:0.40509382"
           id="path4488" />
        <path
           d="m 230.59291,-151.85459 h 1.46818 v 28.87612 h -1.46818 z"
           class="st5"
           style="fill:#8090a0;stroke-width:0.45027864"
           id="path4490"
           inkscape:connector-curvature="0" />
      </g>
    </g>
  </g>
</svg>
