<?xml version="1.0" encoding="UTF-8" standalone="no"?>
<!-- Created with Inkscape (http://www.inkscape.org/) -->

<svg
   xmlns:dc="http://purl.org/dc/elements/1.1/"
   xmlns:cc="http://creativecommons.org/ns#"
   xmlns:rdf="http://www.w3.org/1999/02/22-rdf-syntax-ns#"
   xmlns:svg="http://www.w3.org/2000/svg"
   xmlns="http://www.w3.org/2000/svg"
   xmlns:sodipodi="http://sodipodi.sourceforge.net/DTD/sodipodi-0.dtd"
   xmlns:inkscape="http://www.inkscape.org/namespaces/inkscape"
   width="74.296173mm"
   height="9.2315826mm"
   viewBox="0 0 74.296173 9.2315826"
   version="1.1"
   id="svg5686"
   inkscape:version="0.92.1 r15371"
   sodipodi:docname="divider.svg">
  <defs
     id="defs5680" />
  <sodipodi:namedview
     id="base"
     pagecolor="#ffffff"
     bordercolor="#666666"
     borderopacity="1.0"
     inkscape:pageopacity="0.0"
     inkscape:pageshadow="2"
     inkscape:zoom="1"
     inkscape:cx="230.18794"
     inkscape:cy="71.388359"
     inkscape:document-units="mm"
     inkscape:current-layer="layer1"
     showgrid="false"
     inkscape:window-width="1280"
     inkscape:window-height="657"
     inkscape:window-x="-8"
     inkscape:window-y="-8"
     inkscape:window-maximized="1" />
  <metadata
     id="metadata5683">
    <rdf:RDF>
      <cc:Work
         rdf:about="">
        <dc:format>image/svg+xml</dc:format>
        <dc:type
           rdf:resource="http://purl.org/dc/dcmitype/StillImage" />
        <dc:title></dc:title>
      </cc:Work>
    </rdf:RDF>
  </metadata>
  <g
     inkscape:label="Layer 1"
     inkscape:groupmode="layer"
     id="layer1"
     transform="translate(-11.988817,-212.25325)">
    <g
       id="g790"
       transform="matrix(0.35277777,0,0,-0.35277777,50.406301,218.35217)">
      <path
         d="m 0,0 c 0,0.87 -0.393,1.682 -0.801,2.288 1.742,-0.357 2.936,-1.451 4.28,-2.682 2.179,-1.994 4.89,-4.477 10.9,-4.477 0.299,0 0.541,0.243 0.541,0.541 0,0.299 -0.242,0.541 -0.541,0.541 -5.589,0 -8.023,2.227 -10.17,4.193 -1.734,1.588 -3.371,3.087 -6.262,3.087 -0.223,0 -0.422,-0.136 -0.503,-0.343 -0.081,-0.206 -0.028,-0.441 0.134,-0.593 0.014,-0.012 1.34,-1.266 1.34,-2.555 0,-0.569 -0.502,-1.575 -1.034,-2.64 -0.432,-0.866 -0.899,-1.798 -1.256,-2.769 -0.356,0.971 -0.823,1.903 -1.255,2.769 -0.533,1.065 -1.035,2.071 -1.035,2.64 0,1.286 1.322,2.513 1.335,2.525 0.165,0.15 0.222,0.387 0.141,0.595 -0.081,0.208 -0.28,0.346 -0.504,0.346 -2.891,0 -4.529,-1.497 -6.263,-3.082 -2.146,-1.962 -4.579,-4.186 -10.17,-4.186 -0.298,0 -0.541,-0.242 -0.541,-0.541 0,-0.299 0.243,-0.541 0.541,-0.541 6.01,0 8.721,2.479 10.899,4.47 1.342,1.226 2.535,2.314 4.27,2.674 -0.403,-0.598 -0.79,-1.397 -0.79,-2.26 0,-0.824 0.507,-1.839 1.149,-3.124 0.682,-1.365 1.453,-2.904 1.678,-4.415 -0.004,-0.023 -0.005,-0.044 -0.009,-0.066 -0.017,-0.154 0.031,-0.642 0.134,-0.759 0.102,-0.115 0.249,-0.516 0.403,-0.516 h 0.034 c 0.155,0 0.302,0.401 0.403,0.516 0.103,0.117 0.152,0.437 0.134,0.591 -0.003,0.022 -0.005,0.127 -0.008,0.15 0.224,1.511 0.995,3.093 1.677,4.457 C -0.507,-1.881 0,-0.824 0,0"
         style="fill:#000000;fill-opacity:1;fill-rule:nonzero;stroke:none"
         id="path792"
         inkscape:connector-curvature="0" />
    </g>
    <g
       id="g794"
       transform="matrix(0.35277777,0,0,-0.35277777,13.314684,217.17707)">
      <path
         d="m 0,0 c 2.567,-2.658 5.48,-2.688 5.603,-2.688 0.298,0 0.541,0.241 0.541,0.54 0,0.298 -0.243,0.541 -0.541,0.541 -0.026,0 -2.574,0.027 -4.826,2.358 -2.228,2.308 -3.386,5.978 -3.451,10.925 1.508,-1.679 3.67,-2.24 5.773,-2.786 3.713,-0.963 6.919,-1.795 6.162,-8.678 -0.032,-0.297 0.181,-0.565 0.478,-0.597 0.297,-0.032 0.564,0.182 0.597,0.479 0.859,7.813 -3.298,8.89 -6.965,9.843 -2.509,0.651 -4.879,1.265 -6.079,3.717 -0.11,0.223 -0.357,0.342 -0.599,0.291 C -3.55,13.893 -3.726,13.683 -3.735,13.436 -3.949,7.307 -2.692,2.786 0,0"
         style="fill:#000000;fill-opacity:1;fill-rule:nonzero;stroke:none"
         id="path796"
         inkscape:connector-curvature="0" />
    </g>
    <g
       id="g798"
       transform="matrix(0.35277777,0,0,-0.35277777,20.634999,218.48654)">
      <path
         d="m 0,0 c 4.777,-3.383 9.915,-4.575 15.674,-4.575 5.874,0 12.395,1.238 19.838,2.653 10.027,1.905 21.392,4.064 35.203,4.064 0.299,0 0.541,0.243 0.541,0.541 0,0.298 -0.242,0.541 -0.541,0.541 C 56.801,3.224 45.384,1.055 35.31,-0.86 21.333,-3.516 10.673,-5.54 1.551,0.27 c 1.172,0.217 2.363,0.467 3.574,0.723 4.144,0.873 8.427,1.776 13.205,1.776 0.299,0 0.54,0.242 0.54,0.541 0,0.298 -0.241,0.541 -0.54,0.541 C 13.439,3.851 8.905,2.895 4.903,2.052 3.307,1.715 1.767,1.391 0.278,1.14 c -1.092,0.797 -2.163,1.714 -3.216,2.767 -0.211,0.211 -0.554,0.211 -0.764,0 -0.212,-0.212 -0.212,-0.553 0,-0.764 0.82,-0.821 1.649,-1.56 2.489,-2.23 -6.662,-0.892 -12.3,0.183 -17.472,9.104 -0.151,0.257 -0.482,0.346 -0.74,0.196 -0.258,-0.15 -0.346,-0.481 -0.196,-0.739 4.507,-7.774 9.465,-9.895 14.922,-9.895 1.527,0 3.093,0.166 4.699,0.421"
         style="fill:#000000;fill-opacity:1;fill-rule:nonzero;stroke:none"
         id="path800"
         inkscape:connector-curvature="0" />
    </g>
    <g
       id="g802"
       transform="matrix(0.35277777,0,0,-0.35277777,77.785879,216.01675)">
      <path
         d="m 0,0 c 0,0.299 -0.243,0.5 -0.541,0.5 h -161.121 c -0.298,0 -0.54,-0.201 -0.54,-0.5 0,-0.299 0.242,-0.5 0.54,-0.5 H -0.541 C -0.243,-0.5 0,-0.299 0,0"
         style="fill:#000000;fill-opacity:1;fill-rule:nonzero;stroke:none"
         id="path804"
         inkscape:connector-curvature="0" />
    </g>
    <g
       id="g806"
       transform="matrix(0.35277777,0,0,-0.35277777,18.007969,215.93303)">
      <path
         d="m 0,0 c 0,-0.576 0.467,-1.044 1.043,-1.044 0.576,0 1.043,0.468 1.043,1.044 0,0.575 -0.467,1.042 -1.043,1.042 C 0.467,1.042 0,0.575 0,0"
         style="fill:#000000;fill-opacity:1;fill-rule:nonzero;stroke:none"
         id="path808"
         inkscape:connector-curvature="0" />
    </g>
    <g
       id="g810"
       transform="matrix(0.35277777,0,0,-0.35277777,19.164304,215.93303)">
      <path
         d="m 0,0 c 0,-0.576 0.466,-1.044 1.042,-1.044 0.576,0 1.043,0.468 1.043,1.044 0,0.575 -0.467,1.042 -1.043,1.042 C 0.466,1.042 0,0.575 0,0"
         style="fill:#000000;fill-opacity:1;fill-rule:nonzero;stroke:none"
         id="path812"
         inkscape:connector-curvature="0" />
    </g>
    <g
       id="g814"
       transform="matrix(0.35277777,0,0,-0.35277777,78.357062,215.93303)">
      <path
         d="M 0,0 C 0,-0.576 0.467,-1.044 1.043,-1.044 1.62,-1.044 2.086,-0.576 2.086,0 2.086,0.575 1.62,1.042 1.043,1.042 0.467,1.042 0,0.575 0,0"
         style="fill:#000000;fill-opacity:1;fill-rule:nonzero;stroke:none"
         id="path816"
         inkscape:connector-curvature="0" />
    </g>
    <g
       id="g818"
       transform="matrix(0.35277777,0,0,-0.35277777,79.513397,215.93303)">
      <path
         d="m 0,0 c 0,-0.576 0.466,-1.044 1.042,-1.044 0.576,0 1.043,0.468 1.043,1.044 0,0.575 -0.467,1.042 -1.043,1.042 C 0.466,1.042 0,0.575 0,0"
         style="fill:#000000;fill-opacity:1;fill-rule:nonzero;stroke:none"
         id="path820"
         inkscape:connector-curvature="0" />
    </g>
    <g
       id="g822"
       transform="matrix(0.35277777,0,0,-0.35277777,86.276816,212.43728)">
      <path
         d="m 0,0 c -0.009,0.247 -0.185,0.457 -0.427,0.51 -0.242,0.051 -0.49,-0.069 -0.598,-0.291 -1.202,-2.452 -3.572,-3.067 -6.08,-3.718 -3.668,-0.952 -7.825,-2.029 -6.966,-9.843 0.032,-0.297 0.298,-0.511 0.597,-0.478 0.297,0.032 0.51,0.299 0.478,0.596 -0.756,6.883 2.449,7.715 6.162,8.678 2.104,0.546 4.264,1.108 5.773,2.786 -0.064,-4.931 -1.216,-8.594 -3.43,-10.903 -2.231,-2.325 -4.801,-2.379 -4.849,-2.38 -0.297,-0.001 -0.539,-0.242 -0.539,-0.541 0,-0.299 0.242,-0.54 0.541,-0.54 0.123,0 3.037,0.03 5.603,2.688 C -1.043,-10.649 0.213,-6.129 0,0"
         style="fill:#000000;fill-opacity:1;fill-rule:nonzero;stroke:none"
         id="path824"
         inkscape:connector-curvature="0" />
    </g>
    <g
       id="g826"
       transform="matrix(0.35277777,0,0,-0.35277777,52.692126,217.73103)">
      <path
         d="m 0,0 c 13.812,0 25.177,-2.158 35.203,-4.063 7.444,-1.416 13.964,-2.654 19.839,-2.654 5.758,0 10.896,1.193 15.673,4.575 1.606,-0.254 3.173,-0.421 4.699,-0.421 5.456,0 10.415,2.123 14.922,9.895 0.151,0.259 0.062,0.589 -0.196,0.739 -0.259,0.15 -0.589,0.062 -0.739,-0.196 -5.172,-8.921 -10.811,-9.995 -17.473,-9.104 0.84,0.67 1.67,1.41 2.49,2.23 0.211,0.211 0.211,0.553 0,0.765 -0.211,0.211 -0.554,0.211 -0.765,0 -1.053,-1.053 -2.123,-1.97 -3.216,-2.768 -1.489,0.251 -3.029,0.575 -4.624,0.912 -4.001,0.843 -8.538,1.799 -13.427,1.799 -0.3,0 -0.541,-0.242 -0.541,-0.541 0,-0.299 0.241,-0.541 0.541,-0.541 4.777,0 9.061,-0.902 13.203,-1.775 1.213,-0.256 2.404,-0.506 3.575,-0.724 -9.122,-5.81 -19.78,-3.785 -33.759,-1.13 C 25.332,-1.087 13.914,1.082 0,1.082 -0.298,1.082 -0.541,0.84 -0.541,0.541 -0.541,0.243 -0.298,0 0,0"
         style="fill:#000000;fill-opacity:1;fill-rule:nonzero;stroke:none"
         id="path828"
         inkscape:connector-curvature="0" />
    </g>
  </g>
</svg>
